<svg width="104" height="40" viewBox="0 0 104 40" fill="none" xmlns="http://www.w3.org/2000/svg">
<mask id="mask0_1_87" style="mask-type:luminance" maskUnits="userSpaceOnUse" x="0" y="0" width="40" height="40">
<path d="M31.5534 0.318756H9.33115C4.66741 0.318756 0.886703 4.09946 0.886703 8.7632V30.9854C0.886703 35.6492 4.66741 39.4299 9.33115 39.4299H31.5534C36.2171 39.4299 39.9978 35.6492 39.9978 30.9854V8.7632C39.9978 4.09946 36.2171 0.318756 31.5534 0.318756Z" fill="white"/>
</mask>
<g mask="url(#mask0_1_87)">
<g filter="url(#filter0_i_1_87)">
<path d="M31.5527 0.318726H9.33049C4.66675 0.318726 0.886047 4.09943 0.886047 8.76317V30.9854C0.886047 35.6491 4.66675 39.4298 9.33049 39.4298H31.5527C36.2165 39.4298 39.9972 35.6491 39.9972 30.9854V8.76317C39.9972 4.09943 36.2165 0.318726 31.5527 0.318726Z" fill="#FD6D3F"/>
<path d="M31.5522 1.13383H9.32991C5.11619 1.13383 1.70029 4.54974 1.70029 8.76346V30.9857C1.70029 35.1994 5.11619 38.6153 9.32991 38.6153H31.5522C35.7659 38.6153 39.1818 35.1994 39.1818 30.9857V8.76346C39.1818 4.54974 35.7659 1.13383 31.5522 1.13383Z" stroke="url(#paint0_linear_1_87)" stroke-width="1.62963"/>
<path d="M22.254 7.43244C26.8616 7.43106 30.6102 11.0771 30.6115 15.591C30.6129 20.1049 26.8667 23.7532 22.2591 23.7546C19.6149 23.7554 17.5518 22.7166 15.7585 20.7229C14.6031 19.4384 12.0823 17.1425 10.5914 16.1826C10.3875 16.0513 10.2661 15.8262 10.2698 15.5861C10.2736 15.3461 10.4019 15.1248 10.6098 14.9997C12.1103 14.0972 14.5895 11.7658 15.7553 10.4681C17.5474 8.47327 19.6098 7.43323 22.254 7.43244Z" fill="url(#paint1_linear_1_87)"/>
<path d="M18.678 15.9231C14.0705 15.8948 10.3002 19.519 10.2716 24.0328C10.2432 28.5465 13.9675 32.2167 18.575 32.2449C21.2191 32.2612 23.2884 31.2344 25.0936 29.2511C26.2567 27.9734 28.7912 25.6922 30.2879 24.7411C30.4926 24.6111 30.6153 24.3866 30.6131 24.1465C30.6107 23.9065 30.4837 23.6844 30.2766 23.5582C28.7815 22.647 26.3164 20.3012 25.1583 18.9966C23.3783 16.9913 21.3221 15.9393 18.678 15.9231Z" fill="url(#paint2_linear_1_87)"/>
</g>
</g>
<path d="M31.555 0.257812H9.33281C4.63532 0.257812 0.827255 4.06588 0.827255 8.76337V30.9856C0.827255 35.6831 4.63532 39.4911 9.33281 39.4911H31.555C36.2525 39.4911 40.0606 35.6831 40.0606 30.9856V8.76337C40.0606 4.06588 36.2525 0.257812 31.555 0.257812Z" stroke="black" stroke-opacity="0.6" stroke-width="0.122222"/>
<path d="M55.643 27.2628C54.4483 27.2628 53.3674 27.0637 52.4003 26.6655C51.4332 26.2673 50.6012 25.7126 49.9043 25.0015C49.2074 24.2904 48.667 23.4655 48.283 22.5268C47.9132 21.5882 47.7283 20.5784 47.7283 19.4975C47.7283 18.4166 47.9132 17.4068 48.283 16.4682C48.667 15.5295 49.2003 14.7117 49.883 14.0148C50.5799 13.3037 51.4119 12.7562 52.379 12.3722C53.3603 11.974 54.4483 11.7748 55.643 11.7748C56.8234 11.7748 57.8972 11.974 58.8643 12.3722C59.8456 12.7562 60.6776 13.3037 61.3603 14.0148C62.0572 14.7117 62.5976 15.5366 62.9816 16.4895C63.3656 17.4282 63.5576 18.4308 63.5576 19.4975C63.5576 20.5784 63.3656 21.5882 62.9816 22.5268C62.5976 23.4655 62.0572 24.2904 61.3603 25.0015C60.6776 25.7126 59.8456 26.2673 58.8643 26.6655C57.8972 27.0637 56.8234 27.2628 55.643 27.2628ZM55.643 24.2122C56.2687 24.2122 56.8447 24.0984 57.371 23.8708C57.9114 23.6291 58.3736 23.2948 58.7576 22.8682C59.1416 22.4415 59.4403 21.9437 59.6536 21.3748C59.867 20.7917 59.9736 20.166 59.9736 19.4975C59.9736 18.8291 59.867 18.2104 59.6536 17.6415C59.4403 17.0726 59.1416 16.5748 58.7576 16.1482C58.3736 15.7215 57.9114 15.3944 57.371 15.1668C56.8447 14.9251 56.2687 14.8042 55.643 14.8042C55.003 14.8042 54.4199 14.9251 53.8936 15.1668C53.3674 15.3944 52.9052 15.7215 52.507 16.1482C52.123 16.5748 51.8243 17.0797 51.611 17.6628C51.4119 18.2317 51.3123 18.8433 51.3123 19.4975C51.3123 20.166 51.4119 20.7917 51.611 21.3748C51.8243 21.9437 52.123 22.4415 52.507 22.8682C52.9052 23.2948 53.3674 23.6291 53.8936 23.8708C54.4199 24.0984 55.003 24.2122 55.643 24.2122ZM71.17 27.2415C69.9895 27.2415 68.9584 26.9997 68.0767 26.5162C67.1949 26.0326 66.5122 25.3428 66.0287 24.4468C65.5451 23.5508 65.3033 22.5055 65.3033 21.3108V11.4122H68.61V17.2362H68.674C68.8873 16.9375 69.1504 16.6815 69.4633 16.4682C69.7904 16.2406 70.146 16.07 70.53 15.9562C70.9282 15.8424 71.3478 15.7855 71.7887 15.7855C72.8269 15.7855 73.7371 16.0202 74.5193 16.4895C75.3015 16.9588 75.9131 17.606 76.354 18.4308C76.8091 19.2557 77.0367 20.2228 77.0367 21.3322C77.0367 22.1855 76.9015 22.9748 76.6313 23.7002C76.3611 24.4255 75.97 25.0584 75.458 25.5988C74.9602 26.1251 74.3487 26.5304 73.6233 26.8148C72.9122 27.0993 72.0944 27.2415 71.17 27.2415ZM71.17 24.3828C71.682 24.3828 72.1229 24.262 72.4927 24.0202C72.8624 23.7642 73.1469 23.4228 73.346 22.9962C73.5593 22.5553 73.666 22.0646 73.666 21.5242C73.666 20.9837 73.5593 20.5002 73.346 20.0735C73.1469 19.6468 72.8624 19.3126 72.4927 19.0708C72.1229 18.8148 71.682 18.6868 71.17 18.6868C70.658 18.6868 70.21 18.8148 69.826 19.0708C69.4562 19.3126 69.1718 19.6468 68.9727 20.0735C68.7735 20.5002 68.674 20.9837 68.674 21.5242C68.674 22.0646 68.7735 22.5553 68.9727 22.9962C69.1718 23.4228 69.4562 23.7642 69.826 24.0202C70.21 24.262 70.658 24.3828 71.17 24.3828ZM78.9928 26.9855V11.4122H82.2995V26.9855H78.9928ZM84.7428 26.9855V16.0415H88.0708V26.9855H84.7428ZM86.4068 14.8042C85.8806 14.8042 85.4255 14.6122 85.0415 14.2282C84.6575 13.8442 84.4655 13.3891 84.4655 12.8628C84.4655 12.3366 84.6575 11.8815 85.0415 11.4975C85.4255 11.0993 85.8806 10.9002 86.4068 10.9002C86.933 10.9002 87.3881 11.0993 87.7721 11.4975C88.1561 11.8815 88.3481 12.3366 88.3481 12.8628C88.3481 13.3891 88.1561 13.8442 87.7721 14.2282C87.3881 14.6122 86.933 14.8042 86.4068 14.8042ZM94.2474 31.3162V26.6015H97.5754V31.3162H94.2474ZM95.9114 27.2415C94.7879 27.2415 93.7781 26.9926 92.8821 26.4948C91.9861 25.9971 91.275 25.3144 90.7487 24.4468C90.2367 23.5793 89.9808 22.6051 89.9808 21.5242C89.9808 20.4291 90.2367 19.4548 90.7487 18.6015C91.275 17.734 91.9861 17.0513 92.8821 16.5535C93.7781 16.0415 94.7879 15.7855 95.9114 15.7855C97.035 15.7855 98.0376 16.0415 98.9194 16.5535C99.8154 17.0513 100.519 17.734 101.031 18.6015C101.558 19.4548 101.821 20.4291 101.821 21.5242C101.821 22.6051 101.558 23.5793 101.031 24.4468C100.519 25.3144 99.8154 25.9971 98.9194 26.4948C98.0234 26.9926 97.0207 27.2415 95.9114 27.2415ZM95.9114 24.3615C96.4376 24.3615 96.8927 24.2335 97.2768 23.9775C97.6608 23.7215 97.9594 23.3802 98.1727 22.9535C98.3861 22.5268 98.4927 22.0433 98.4927 21.5028C98.4927 20.9766 98.3861 20.5002 98.1727 20.0735C97.9594 19.6468 97.6608 19.3055 97.2768 19.0495C96.8927 18.7935 96.4376 18.6655 95.9114 18.6655C95.3852 18.6655 94.923 18.7935 94.5247 19.0495C94.1408 19.3055 93.8421 19.6468 93.6287 20.0735C93.4154 20.5002 93.3087 20.9766 93.3087 21.5028C93.3087 22.0433 93.4154 22.5268 93.6287 22.9535C93.8421 23.3802 94.1408 23.7215 94.5247 23.9775C94.923 24.2335 95.3852 24.3615 95.9114 24.3615Z" fill="#331100"/>
<defs>
<filter id="filter0_i_1_87" x="0.885468" y="-10.6813" width="44.0006" height="50.1114" filterUnits="userSpaceOnUse" color-interpolation-filters="sRGB">
<feFlood flood-opacity="0" result="BackgroundImageFix"/>
<feBlend mode="normal" in="SourceGraphic" in2="BackgroundImageFix" result="shape"/>
<feColorMatrix in="SourceAlpha" type="matrix" values="0 0 0 0 0 0 0 0 0 0 0 0 0 0 0 0 0 0 127 0" result="hardAlpha"/>
<feOffset dx="4.88889" dy="-11"/>
<feGaussianBlur stdDeviation="9.77778"/>
<feComposite in2="hardAlpha" operator="arithmetic" k2="-1" k3="1"/>
<feColorMatrix type="matrix" values="0 0 0 0 0.913725 0 0 0 0 0.462745 0 0 0 0 0.168627 0 0 0 0.4 0"/>
<feBlend mode="normal" in2="shape" result="effect1_innerShadow_1_87"/>
</filter>
<linearGradient id="paint0_linear_1_87" x1="20.441" y1="0.319015" x2="20.441" y2="39.4301" gradientUnits="userSpaceOnUse">
<stop stop-color="#FF7C4E"/>
<stop offset="1" stop-color="#EE5E30"/>
</linearGradient>
<linearGradient id="paint1_linear_1_87" x1="30.6115" y1="15.591" x2="10.2697" y2="15.5973" gradientUnits="userSpaceOnUse">
<stop stop-color="white" stop-opacity="0.8"/>
<stop offset="1" stop-color="white" stop-opacity="0.5"/>
</linearGradient>
<linearGradient id="paint2_linear_1_87" x1="10.2716" y1="24.0327" x2="30.6131" y2="24.1612" gradientUnits="userSpaceOnUse">
<stop stop-color="white" stop-opacity="0.8"/>
<stop offset="1" stop-color="white" stop-opacity="0.5"/>
</linearGradient>
</defs>
</svg>
